<svg xmlns="http://www.w3.org/2000/svg" viewBox="-29 9 100 64"><path fill="#FFF" d="M21.6 39.5c1.8-1.5 3.5-3.5 4.6-5.6-1.5-.5-3-.8-4.6-.8m-1.1 6.3C18.6 38 17 36 15.9 33.9c1.5-.5 3-.8 4.6-.8v6.3zm1.1-28.6c1.8 1.5 3.5 3.4 4.6 5.5-1.5.5-3 .9-4.6.9v-6.4zm-1.1 0c-1.9 1.5-3.5 3.5-4.6 5.5 1.5.5 3 .9 4.6.9v-6.4zm1.1 21.1v-6.3h6.8c0 2.5-.6 5-1.7 7.3-1.6-.5-3.4-.9-5.1-1m14.8-6.2h-6.9c-.1 2.8-.7 5.2-1.8 7.7 1.5.7 2.8 1.5 4.1 2.5 2.8-2.8 4.5-6.4 4.6-10.2M31 36.6c-1.1-.9-2.4-1.8-3.8-2.3-1.2 2.2-2.7 4.1-4.7 5.7 3.1-.3 6-1.5 8.5-3.4m-10.5-4.7v-6.3h-6.8c0 2.5.6 5 1.7 7.3 1.5-.5 3.3-.9 5.1-1M5.6 25.7h6.9c.1 2.8.7 5.2 1.9 7.7-1.5.7-2.8 1.5-4.1 2.5-2.9-2.8-4.5-6.3-4.7-10.2M11 36.6c1.1-.9 2.4-1.8 3.8-2.3 1.2 2.2 2.7 4.1 4.7 5.7-3.2-.3-6.1-1.5-8.5-3.4m10.6-18.3v6.3h6.8c0-2.5-.6-4.9-1.7-7.3-1.6.6-3.4 1-5.1 1m14.8 6.3h-6.9c-.1-2.7-.7-5.2-1.8-7.6 1.5-.7 2.8-1.5 4.1-2.5 3 2.8 4.5 6.3 4.6 10.1M31 13.7c-1.1 1-2.4 1.8-3.8 2.3-1.2-2.3-2.7-4.1-4.7-5.8 3.1.4 6 1.5 8.5 3.5m-10.5 4.6v6.3h-6.8c0-2.5.6-5 1.7-7.3 1.5.6 3.3 1 5.1 1M5.6 24.6h6.9c.1-2.8.7-5.2 1.9-7.6-1.5-.7-2.8-1.5-4.1-2.5-3 2.7-4.5 6.3-4.7 10.1M11 13.7c1.1 1 2.4 1.8 3.8 2.3 1.2-2.2 2.8-4.1 4.7-5.8-3.2.4-6 1.5-8.5 3.5m-39.3 16.4H2.5c1.1 5.5 5 10.1 12.8 13.2-.9 2.6-3.9 5-7.1 5H-8.4c-2.6 0-4.6-2.1-5.4-3.7h17c1-.2 1.1-1 0-1.1h-16.7c-2.2 0-4.1-1.8-5.2-3.8H.7c1-.1 1-1 0-1.1h-19.6c-2 0-3.8-2.2-4.5-3.7h21.5c1.1-.1 1.1-1.1 0-1.1h-21.9c-1.7 0-3.3-1.8-4.5-3.7m98.6 0H39.5c-1.1 5.5-5 10.1-12.8 13.2.9 2.6 3.9 5 7 5h16.7c2.5 0 4.6-2.1 5.4-3.7h-17c-1-.2-1.1-1 0-1.1h16.7c2.2 0 4.1-1.8 5.2-3.8H41.3c-1-.1-1-1 0-1.1h19.6c2 0 3.8-2.2 4.5-3.7H43.9c-1.1-.1-1.1-1.1 0-1.1h21.9c1.7 0 3.3-1.8 4.5-3.7M35.6 71.8l9.9-19.5H52l4 19.5h-6.1l-.3-2.3h-6.5l-1 2.3h-6.5zm9.2-6.4H49l-1.1-7.2-3.1 7.2zm-22 6.4L25 57.1h-5.7l1-4.9h17.6l-1 4.9h-5.4l-2.2 14.7h-6.5zm-26.5 0l9.9-19.5h6.5l4.1 19.5h-6.1l-.4-2.3H3.8l-1 2.3h-6.5zm9.2-6.4h4.2l-1.1-7.2-3.1 7.2zm-19.8 6.4l4-19.5h6.6l-4 19.5h-6.6z"/></svg>