<?xml version="1.0" encoding="utf-8"?>
<!-- Generator: Adobe Illustrator 19.1.0, SVG Export Plug-In . SVG Version: 6.00 Build 0)  -->
<svg version="1.1" id="Layer_1" xmlns="http://www.w3.org/2000/svg" xmlns:xlink="http://www.w3.org/1999/xlink" x="0px" y="0px"
	 viewBox="-29 9 100 64" enable-background="new -29 9 100 64" xml:space="preserve">
<path fill="#FFFFFF" d="M21.6,39.5c1.8-1.5,3.5-3.5,4.6-5.6c-1.5-0.5-3-0.8-4.6-0.8 M20.5,39.4C18.6,38,17,36,15.9,33.9
	c1.5-0.5,3-0.8,4.6-0.8V39.4z M21.6,10.8c1.8,1.5,3.5,3.4,4.6,5.5c-1.5,0.5-3,0.9-4.6,0.9V10.8z M20.5,10.8
	c-1.9,1.5-3.5,3.5-4.6,5.5c1.5,0.5,3,0.9,4.6,0.9V10.8z M21.6,31.9v-6.3h6.8c0,2.5-0.6,5-1.7,7.3C25.1,32.4,23.3,32,21.6,31.9
	 M36.4,25.7h-6.9c-0.1,2.8-0.7,5.2-1.8,7.7c1.5,0.7,2.8,1.5,4.1,2.5C34.6,33.1,36.3,29.5,36.4,25.7 M31,36.6
	c-1.1-0.9-2.4-1.8-3.8-2.3c-1.2,2.2-2.7,4.1-4.7,5.7C25.6,39.7,28.5,38.5,31,36.6 M20.5,31.9v-6.3h-6.8c0,2.5,0.6,5,1.7,7.3
	C16.9,32.4,18.7,32,20.5,31.9 M5.6,25.7h6.9c0.1,2.8,0.7,5.2,1.9,7.7c-1.5,0.7-2.8,1.5-4.1,2.5C7.4,33.1,5.8,29.6,5.6,25.7 M11,36.6
	c1.1-0.9,2.4-1.8,3.8-2.3c1.2,2.2,2.7,4.1,4.7,5.7C16.3,39.7,13.4,38.5,11,36.6 M21.6,18.3v6.3h6.8c0-2.5-0.6-4.9-1.7-7.3
	C25.1,17.9,23.3,18.3,21.6,18.3 M36.4,24.6h-6.9c-0.1-2.7-0.7-5.2-1.8-7.6c1.5-0.7,2.8-1.5,4.1-2.5C34.8,17.3,36.3,20.8,36.4,24.6
	 M31,13.7c-1.1,1-2.4,1.8-3.8,2.3c-1.2-2.3-2.7-4.1-4.7-5.8C25.6,10.6,28.5,11.7,31,13.7 M20.5,18.3v6.3h-6.8c0-2.5,0.6-5,1.7-7.3
	C16.9,17.9,18.7,18.3,20.5,18.3 M5.6,24.6h6.9c0.1-2.8,0.7-5.2,1.9-7.6c-1.5-0.7-2.8-1.5-4.1-2.5C7.3,17.2,5.8,20.8,5.6,24.6
	 M11,13.7c1.1,1,2.4,1.8,3.8,2.3c1.2-2.2,2.8-4.1,4.7-5.8C16.3,10.6,13.5,11.7,11,13.7 M-28.3,30.1H2.5c1.1,5.5,5,10.1,12.8,13.2
	c-0.9,2.6-3.9,5-7.1,5H-8.4c-2.6,0-4.6-2.1-5.4-3.7h17c1-0.2,1.1-1,0-1.1h-16.7c-2.2,0-4.1-1.8-5.2-3.8H0.7c1-0.1,1-1,0-1.1h-19.6
	c-2,0-3.8-2.2-4.5-3.7h21.5c1.1-0.1,1.1-1.1,0-1.1h-21.9C-25.5,33.8-27.1,32-28.3,30.1 M70.3,30.1H39.5c-1.1,5.5-5,10.1-12.8,13.2
	c0.9,2.6,3.9,5,7,5h16.7c2.5,0,4.6-2.1,5.4-3.7h-17c-1-0.2-1.1-1,0-1.1h16.7c2.2,0,4.1-1.8,5.2-3.8H41.3c-1-0.1-1-1,0-1.1h19.6
	c2,0,3.8-2.2,4.5-3.7H43.9c-1.1-0.1-1.1-1.1,0-1.1h21.9C67.5,33.8,69.1,32,70.3,30.1 M35.6,71.8l9.9-19.5H52l4,19.5h-6.1l-0.3-2.3
	h-6.5l-1,2.3H35.6z M44.8,65.4H49l-1.1-7.2L44.8,65.4z M22.8,71.8L25,57.1h-5.7l1-4.9h17.6l-1,4.9h-5.4l-2.2,14.7H22.8z M-3.7,71.8
	l9.9-19.5h6.5l4.1,19.5h-6.1l-0.4-2.3H3.8l-1,2.3H-3.7z M5.5,65.4h4.2l-1.1-7.2L5.5,65.4z M-14.3,71.8l4-19.5h6.6l-4,19.5H-14.3z"/>
</svg>
