<?xml version="1.0" encoding="utf-8"?>
<!-- Generator: Adobe Illustrator 19.1.0, SVG Export Plug-In . SVG Version: 6.00 Build 0)  -->
<svg version="1.1" id="Layer_1" xmlns="http://www.w3.org/2000/svg" xmlns:xlink="http://www.w3.org/1999/xlink" x="0px" y="0px"
	 viewBox="0 0 100 64" enable-background="new 0 0 100 64" xml:space="preserve">
<path fill="#1F3E75" d="M50.6,30.5c1.8-1.5,3.5-3.5,4.6-5.6c-1.5-0.5-3-0.8-4.6-0.8 M49.5,30.4c-1.9-1.4-3.5-3.4-4.6-5.5
	c1.5-0.5,3-0.8,4.6-0.8V30.4z M50.6,1.8c1.8,1.5,3.5,3.4,4.6,5.5c-1.5,0.5-3,0.9-4.6,0.9V1.8z M49.5,1.8c-1.9,1.5-3.5,3.5-4.6,5.5
	c1.5,0.5,3,0.9,4.6,0.9V1.8z M50.6,22.9v-6.3h6.8c0,2.5-0.6,5-1.7,7.3C54.1,23.4,52.3,23,50.6,22.9 M65.4,16.7h-6.9
	c-0.1,2.8-0.7,5.2-1.8,7.7c1.5,0.7,2.8,1.5,4.1,2.5C63.6,24.1,65.3,20.5,65.4,16.7 M60,27.6c-1.1-0.9-2.4-1.8-3.8-2.3
	c-1.2,2.2-2.7,4.1-4.7,5.7C54.6,30.7,57.5,29.5,60,27.6 M49.5,22.9v-6.3h-6.8c0,2.5,0.6,5,1.7,7.3C45.9,23.4,47.7,23,49.5,22.9
	 M34.6,16.7h6.9c0.1,2.8,0.7,5.2,1.9,7.7c-1.5,0.7-2.8,1.5-4.1,2.5C36.4,24.1,34.8,20.6,34.6,16.7 M40,27.6c1.1-0.9,2.4-1.8,3.8-2.3
	c1.2,2.2,2.7,4.1,4.7,5.7C45.3,30.7,42.4,29.5,40,27.6 M50.6,9.3v6.3h6.8c0-2.5-0.6-4.9-1.7-7.3C54.1,8.9,52.3,9.3,50.6,9.3
	 M65.4,15.6h-6.9c-0.1-2.7-0.7-5.2-1.8-7.6c1.5-0.7,2.8-1.5,4.1-2.5C63.8,8.3,65.3,11.8,65.4,15.6 M60,4.7c-1.1,1-2.4,1.8-3.8,2.3
	c-1.2-2.3-2.7-4.1-4.7-5.8C54.6,1.6,57.5,2.7,60,4.7 M49.5,9.3v6.3h-6.8c0-2.5,0.6-5,1.7-7.3C45.9,8.9,47.7,9.3,49.5,9.3 M34.6,15.6
	h6.9c0.1-2.8,0.7-5.2,1.9-7.6c-1.5-0.7-2.8-1.5-4.1-2.5C36.3,8.2,34.8,11.8,34.6,15.6 M40,4.7c1.1,1,2.4,1.8,3.8,2.3
	c1.2-2.2,2.8-4.1,4.7-5.8C45.3,1.6,42.5,2.7,40,4.7 M0.7,21.1h30.8c1.1,5.5,5,10.1,12.8,13.2c-0.9,2.6-3.9,5-7.1,5H20.6
	c-2.6,0-4.6-2.1-5.4-3.7h17c1-0.2,1.1-1,0-1.1H15.5c-2.2,0-4.1-1.8-5.2-3.8h19.4c1-0.1,1-1,0-1.1H10.1c-2,0-3.8-2.2-4.5-3.7h21.5
	c1.1-0.1,1.1-1.1,0-1.1H5.2C3.5,24.8,1.9,23,0.7,21.1 M99.3,21.1H68.5c-1.1,5.5-5,10.1-12.8,13.2c0.9,2.6,3.9,5,7,5h16.7
	c2.5,0,4.6-2.1,5.4-3.7h-17c-1-0.2-1.1-1,0-1.1h16.7c2.2,0,4.1-1.8,5.2-3.8H70.3c-1-0.1-1-1,0-1.1h19.6c2,0,3.8-2.2,4.5-3.7H72.9
	c-1.1-0.1-1.1-1.1,0-1.1h21.9C96.5,24.8,98.1,23,99.3,21.1 M64.6,62.8l9.9-19.5h6.5L85,62.8h-6.1l-0.3-2.3h-6.5l-1,2.3H64.6z
	 M73.8,56.4h4.2l-1.1-7.2L73.8,56.4z M51.8,62.8L54,48.1h-5.7l1-4.9h17.6l-1,4.9h-5.4l-2.2,14.7H51.8z M25.3,62.8l9.9-19.5h6.5
	l4.1,19.5h-6.1l-0.4-2.3h-6.5l-1,2.3H25.3z M34.5,56.4h4.2l-1.1-7.2L34.5,56.4z M14.7,62.8l4-19.5h6.6l-4,19.5H14.7z"/>
</svg>
